<svg width="120" height="120" fill="none" xmlns="http://www.w3.org/2000/svg"><g clip-path="url(#a)"><path fill-rule="evenodd" clip-rule="evenodd" d="M60.77 0a.77.77 0 0 1 .768.77v23.984L63.632.862a.768.768 0 0 1 .83-.708L66 .292a.77.77 0 0 1 .692.831l-2.077 23.908L68.77 1.4a.77.77 0 0 1 .892-.615l1.539.261a.77.77 0 0 1 .63.892l-4.138 23.616 6.154-23.17a.77.77 0 0 1 .939-.538l1.538.4a.77.77 0 0 1 .539.939l-6.154 23.184 8.215-22.554a.77.77 0 0 1 .985-.461l1.446.523a.769.769 0 0 1 .461.985l-8.323 22.553L83.631 5.662a.785.785 0 0 1 1.03-.37l1.4.662a.77.77 0 0 1 .37 1.015L76.292 28.708l11.985-20.77a.785.785 0 0 1 1.061-.276l1.324.769a.77.77 0 0 1 .292 1.046l-12 20.77L92.708 10.6a.77.77 0 0 1 1.077-.185l1.261.877a.77.77 0 0 1 .185 1.077L81.539 32.015l15.384-18.461a.785.785 0 0 1 1.092-.093l1.17 1a.755.755 0 0 1 .092 1.078L83.892 34l16.923-16.923a.744.744 0 0 1 .832-.172c.093.04.176.098.245.172l1.093 1.092a.745.745 0 0 1 .233.539.74.74 0 0 1-.233.538L86.061 36.17l18.385-15.384a.751.751 0 0 1 .845-.097.758.758 0 0 1 .232.189l1 1.17a.782.782 0 0 1-.092 1.091L87.969 38.523l19.723-13.754a.774.774 0 0 1 .859-.023c.086.054.16.125.218.208l.877 1.261a.776.776 0 0 1 .132.577.772.772 0 0 1-.316.5L89.754 41.046l20.769-12a.77.77 0 0 1 1.046.293l.769 1.323a.782.782 0 0 1-.276 1.061l-20.77 11.985 21.739-10.139a.768.768 0 0 1 1.015.37l.662 1.4a.784.784 0 0 1-.37 1.03L92.585 46.508l22.553-8.216a.77.77 0 0 1 .985.462l.523 1.446a.768.768 0 0 1-.461.985L93.631 49.4l23.184-6.154a.769.769 0 0 1 .939.539l.4 1.538a.772.772 0 0 1-.539.938l-23.184 6.047 23.631-4.17a.765.765 0 0 1 .785.35c.054.085.09.181.107.281l.261 1.539a.77.77 0 0 1-.615.892l-23.63 4.185 23.907-2.093a.767.767 0 0 1 .831.693l.138 1.538a.76.76 0 0 1-.181.563.774.774 0 0 1-.527.268l-23.923 2.108h24.016a.771.771 0 0 1 .769.769v1.538a.77.77 0 0 1-.769.77H95.246l23.892 2.092a.739.739 0 0 1 .693.692v.139L119.692 66a.765.765 0 0 1-.83.692l-23.893-2.077 23.631 4.17a.754.754 0 0 1 .631.754v.138l-.262 1.538a.773.773 0 0 1-.59.624.771.771 0 0 1-.302.007l-23.646-4.154 23.184 6.154a.787.787 0 0 1 .57.8v.139l-.4 1.538a.769.769 0 0 1-.939.539l-23.184-6.154 22.553 8.215c.17.06.312.177.403.332.09.156.122.338.09.514v.139l-.523 1.446a.773.773 0 0 1-.985.461l-22.615-8.323 21.753 10.139a.78.78 0 0 1 .416.892v.139l-.662 1.4a.767.767 0 0 1-1.015.369L91.292 76.292l20.77 11.985a.787.787 0 0 1 .338.938v.123l-.769 1.324a.77.77 0 0 1-1.046.292l-20.77-12 19.647 13.754a.789.789 0 0 1 .261.954v.123l-.877 1.261a.762.762 0 0 1-.5.317.77.77 0 0 1-.577-.132L87.985 81.539l18.461 15.384a.784.784 0 0 1 .169.97v.122l-1 1.17a.743.743 0 0 1-.519.273.754.754 0 0 1-.558-.181L86.154 83.892l16.923 16.923a.773.773 0 0 1 .092.97l-.092.107-1.092 1.093a.75.75 0 0 1-.539.233.736.736 0 0 1-.538-.233L83.985 86.061l15.384 18.385a.77.77 0 0 1 0 .985l-.108.092-1.169 1a.782.782 0 0 1-1.092-.092L81.615 87.969l13.616 19.723a.785.785 0 0 1-.077.985l-.108.092-1.261.877a.776.776 0 0 1-.577.132.772.772 0 0 1-.5-.316L78.954 89.754l12 20.769a.77.77 0 0 1-.17.969h-.123l-1.323.77a.787.787 0 0 1-1.061-.277l-11.985-20.77 10.139 21.739a.767.767 0 0 1-.262.954h-.108l-1.4.661a.784.784 0 0 1-1.03-.369L73.492 92.585l8.216 22.553a.77.77 0 0 1-.339.924h-.123l-1.446.523a.773.773 0 0 1-.985-.462L70.6 93.631l6.154 23.184a.756.756 0 0 1-.416.893h-.123l-1.538.4a.768.768 0 0 1-.939-.539l-6.046-23.138 4.17 23.631a.799.799 0 0 1-.493.861h-.138l-1.539.262a.77.77 0 0 1-.892-.616l-4.185-23.6 2.093 23.908a.77.77 0 0 1-.554.8h-.139l-1.538.138a.76.76 0 0 1-.563-.181.764.764 0 0 1-.268-.526l-2.108-23.877v24a.771.771 0 0 1-.769.769h-1.538a.77.77 0 0 1-.77-.769v-24l-2.092 23.907a.771.771 0 0 1-.531.674.759.759 0 0 1-.3.034L54 119.708a.77.77 0 0 1-.692-.831l2.077-23.908L51.23 118.6a.77.77 0 0 1-.892.615l-1.539-.261a.774.774 0 0 1-.501-.315.774.774 0 0 1-.13-.577l4.139-23.631-6.154 23.184a.77.77 0 0 1-.939.539l-1.538-.4a.769.769 0 0 1-.538-.939l6.153-23.184-8.215 22.554a.768.768 0 0 1-.985.461l-1.446-.523a.767.767 0 0 1-.461-.985L46.4 92.585l-10.03 21.753a.785.785 0 0 1-1.031.37l-1.4-.662a.77.77 0 0 1-.37-1.015l10.139-21.739-11.985 20.77a.783.783 0 0 1-1.061.276l-1.323-.769a.768.768 0 0 1-.293-1.046l12-20.77L27.292 109.4a.766.766 0 0 1-.801.308.757.757 0 0 1-.276-.123l-1.261-.877a.779.779 0 0 1-.317-.5.77.77 0 0 1 .132-.577l13.77-19.646-15.385 18.461a.783.783 0 0 1-1.092.092l-1.17-1a.743.743 0 0 1-.273-.519.754.754 0 0 1 .181-.557l15.385-18.385L19.26 103a.73.73 0 0 1-.538.233.74.74 0 0 1-.538-.233l-1.093-1.092a.744.744 0 0 1-.172-.832.733.733 0 0 1 .172-.245l16.923-16.923-18.461 15.384a.753.753 0 0 1-1.077-.092l-1-1.17a.785.785 0 0 1 .092-1.091l18.462-15.385L12.308 95.23a.768.768 0 0 1-1.077-.185l-.816-1.2a.77.77 0 0 1 .185-1.077l19.646-13.754-20.77 12a.77.77 0 0 1-1.045-.292L7.66 89.4a.785.785 0 0 1 .277-1.062l20.77-11.984L6.969 86.43a.77.77 0 0 1-1.015-.37l-.662-1.446a.785.785 0 0 1 .37-1.03l21.753-10.139-22.553 8.262a.769.769 0 0 1-.985-.462L3.354 79.8a.77.77 0 0 1 .461-.985L26.37 70.6 3.185 76.754a.77.77 0 0 1-.939-.539l-.4-1.538a.77.77 0 0 1 .539-.939l23.169-6.153L1.938 71.8a.77.77 0 0 1-.892-.63l-.261-1.54a.77.77 0 0 1 .615-.891l23.63-4.124-23.907 2.077A.77.77 0 0 1 .293 66l-.14-1.538a.769.769 0 0 1 .709-.831l23.907-2.093h-24A.77.77 0 0 1 0 60.77v-1.538a.77.77 0 0 1 .77-.77h24L.861 56.37a.738.738 0 0 1-.693-.692v-.139L.308 54a.77.77 0 0 1 .83-.692l23.893 2.077L1.4 51.23a.754.754 0 0 1-.63-.754v-.138l.26-1.539a.77.77 0 0 1 .893-.63l23.646 4.138-23.184-6.154a.785.785 0 0 1-.57-.8v-.139l.4-1.538a.77.77 0 0 1 .939-.538l23.184 6.153-22.523-8.107a.754.754 0 0 1-.492-.846V40.2l.523-1.446a.769.769 0 0 1 .985-.462l22.554 8.216L5.662 36.369a.785.785 0 0 1-.416-.892v-.138l.662-1.4a.77.77 0 0 1 1.015-.37l21.739 10.139-20.77-11.985a.785.785 0 0 1-.338-.938v-.123l.77-1.323a.77.77 0 0 1 1.045-.293l20.77 12L10.6 27.292a.785.785 0 0 1-.261-.954l.076-.123.877-1.261a.77.77 0 0 1 1.077-.185l19.646 13.693-18.461-15.385a.785.785 0 0 1-.17-.97v-.122l1-1.17a.754.754 0 0 1 1.077-.092l18.462 15.385L17 19.185a.77.77 0 0 1-.092-.97l.092-.107 1.092-1.093a.737.737 0 0 1 1.077 0l16.923 16.923L20.708 15.57a.77.77 0 0 1 0-.984l.107-.093 1.17-1a.785.785 0 0 1 1.092.093L38.46 32.046 24.77 12.308a.785.785 0 0 1 0-.985l.108-.092 1.262-.877a.77.77 0 0 1 1.076.185L40.97 30.184l-12-20.77a.77.77 0 0 1 .17-.969l.123-.077 1.323-.769a.785.785 0 0 1 1.061.277l11.985 20.77L33.569 6.968a.77.77 0 0 1 .262-.954h.107l1.4-.661a.784.784 0 0 1 1.031.37l10.139 21.753-8.216-22.615a.77.77 0 0 1 .339-.924h.123l1.446-.523a.77.77 0 0 1 .985.462L49.4 26.43 43.246 3.246a.754.754 0 0 1 .415-.892h.124l1.538-.4a.77.77 0 0 1 .938.538l6.154 23.17L48.2 1.938a.8.8 0 0 1 .492-.861h.139l1.538-.262a.77.77 0 0 1 .892.616l4.124 23.6-2.077-23.908a.769.769 0 0 1 .553-.8H54l1.538-.138a.769.769 0 0 1 .831.707l2.093 23.877v-24A.77.77 0 0 1 59.23 0h1.538z" fill="#000"/><path d="M60 116.923c31.438 0 56.923-25.485 56.923-56.923 0-31.438-25.485-56.923-56.923-56.923C28.562 3.077 3.077 28.562 3.077 60c0 31.438 25.485 56.923 56.923 56.923z" fill="#FFC700"/><path fill-rule="evenodd" clip-rule="evenodd" d="M60 1.538a58.462 58.462 0 1 1 0 116.924A58.462 58.462 0 0 1 60 1.538zm0 3.077a55.384 55.384 0 1 0 0 110.769A55.384 55.384 0 0 0 60 4.615zM61.538 100v12.308h-3.076V100h3.076zm-10-.862c1 .216 2.016.385 3.077.523L52.477 111.8a59.37 59.37 0 0 1-3.077-.538l2.139-12.124zm16.924 0 2.138 12.124c-1 .215-2.015.384-3.077.538l-2.138-12.138a57.787 57.787 0 0 0 3.076-.554v.03zm-23.585-2.092c.954.385 1.908.739 2.892 1.046l-4.215 11.585a49.865 49.865 0 0 1-2.893-1.062l4.216-11.569zm30.246 0 4.215 11.569c-.953.385-1.923.739-2.892 1.062l-4.138-11.585a53.696 53.696 0 0 0 2.815-1.046zm-36.446-3.2a35.157 35.157 0 0 0 2.662 1.539l-6.154 10.677c-.908-.493-1.8-1-2.662-1.539l6.154-10.677zm42.646 0 6.154 10.677a50.063 50.063 0 0 1-2.662 1.539l-6.153-10.677c.907-.477 1.8-.985 2.661-1.539zm-48.2-4.215a36.74 36.74 0 0 0 2.37 1.984l-7.924 9.431a72.552 72.552 0 0 1-2.354-1.985l7.908-9.43zm53.754 0 7.908 9.43a72.552 72.552 0 0 1-2.354 1.985l-7.923-9.43c.815-.631 1.646-1.293 2.369-1.985zM60 23.077a36.923 36.923 0 1 1 0 73.846 36.923 36.923 0 0 1 0-73.846zm-31.615 61.43c.63.816 1.292 1.54 1.984 2.37l-9.43 7.908a72.813 72.813 0 0 1-1.985-2.354l9.43-7.923zm63.23 0 9.431 7.924c-.646.8-1.308 1.584-1.985 2.354l-9.43-7.908c.692-.723 1.354-1.554 1.984-2.37zM60 26.155a33.846 33.846 0 1 0 0 67.692 33.846 33.846 0 0 0 0-67.692zM24.615 78.662c.477.907.985 1.8 1.539 2.661l-10.677 6.154a49.987 49.987 0 0 1-1.539-2.662l10.677-6.153zm70.77 0 10.661 6.153c-.492.908-1 1.8-1.538 2.662l-10.677-6.154a30.772 30.772 0 0 0 1.554-2.661zM41.538 51.123v18.63a1.539 1.539 0 0 0 .77 1.34l16.154 9.322V69.108A9.23 9.23 0 0 1 51.339 56.8l-9.8-5.677zm36.924 0-9.8 5.662a9.23 9.23 0 0 1-7.124 12.307V80.4l16.154-9.323a1.539 1.539 0 0 0 .754-1.154v-18.8h.016zM21.907 72.308c.307.984.661 1.938 1.046 2.892l-11.57 4.138a50.23 50.23 0 0 1-1.06-2.892l11.584-4.138zm76.184 0 11.585 4.215c-.323.97-.677 1.939-1.062 2.892L97.046 75.2c.385-1.03.739-1.985 1.046-2.892zM20.37 65.43c.139 1.015.308 2.03.523 3.077L8.77 70.6a45.68 45.68 0 0 1-.538-3.077l12.138-2.092zm79.262 0 12.138 2.138a59.374 59.374 0 0 1-.538 3.077l-12.123-2.184c.215-1 .384-2.016.523-3.031zM60 53.846a6.154 6.154 0 1 0 0 12.308 6.154 6.154 0 0 0 0-12.308zm52.308 4.616v3.076H100v-3.076h12.308zm-92.308 0v3.076H7.692v-3.076H20zM8.77 49.4l12.122 2.139c-.215 1-.384 2.015-.523 3.076L8.231 52.477a45.68 45.68 0 0 1 .538-3.077zm102.461 0c.215 1 .384 2.015.538 3.077l-12.138 2.138a45.956 45.956 0 0 0-.523-3.077L111.23 49.4zm-52-10.261L43.077 48.46l9.815 5.662a9.231 9.231 0 0 1 6.77-3.354H60a9.232 9.232 0 0 1 7.108 3.354l9.815-5.661-4.615-2.631-11.539-6.693a1.537 1.537 0 0 0-1.538 0zm49.384 1.538c.385.954.739 1.923 1.062 2.892l-11.585 4.216a38.118 38.118 0 0 0-1.046-2.893l11.569-4.215zm-97.23 0 11.569 4.215a38.118 38.118 0 0 0-1.046 2.893l-11.585-4.216c.323-.984.677-1.954 1.062-2.908v.016zm93.138-8.139a50.063 50.063 0 0 1 1.539 2.662l-10.677 6.154c-.477-.908-.985-1.8-1.539-2.662l10.677-6.154zm-89.046 0 10.677 6.154a35.155 35.155 0 0 0-1.539 2.662L13.94 35.2c.492-.923 1-1.815 1.538-2.677v.015zm83.584-7.307c.677.769 1.339 1.554 1.985 2.354l-9.43 7.923c-.631-.816-1.293-1.539-1.985-2.37l9.43-7.907zm-78.123 0 9.431 7.907a36.74 36.74 0 0 0-1.984 2.37l-9.431-7.923c.697-.81 1.359-1.6 1.985-2.37v.016zm6.631-6.262 7.923 9.431c-.815.63-1.538 1.292-2.369 1.985l-7.908-9.431c.77-.636 1.554-1.303 2.354-2v.015zm64.862 0c.8.646 1.584 1.308 2.354 1.985l-7.908 9.43a36.74 36.74 0 0 0-2.37-1.984l7.924-9.43zm-7.692-5.015c.907.492 1.8 1 2.661 1.538L81.246 26.17a35.157 35.157 0 0 0-2.661-1.538l6.154-10.677zm-49.631 0 6.154 10.677c-.908.477-1.8.984-2.662 1.538l-6.154-10.677a86.18 86.18 0 0 1 2.739-1.554l-.077.016zm8.369-3.616 4.215 11.585c-.984.308-1.938.662-2.892 1.046l-4.139-11.584a50.23 50.23 0 0 1 2.893-1.062l-.077.015zm32.892 0a50.1 50.1 0 0 1 2.892 1.062l-4.215 11.57a38.105 38.105 0 0 0-2.892-1.047l4.215-11.584zM52.431 8.232l2.138 12.138c-1.015.139-2.03.308-3.077.523L49.4 8.77c1-.215 2.015-.384 3.03-.538zm15.138 0c1.016.154 2.031.323 3.077.538l-2.184 12.123c-1-.215-2.016-.384-3.077-.523l2.184-12.138zM60 7.692h1.538V20h-3.076V7.692H60zm21.538 40.739v23.077a1.537 1.537 0 0 1-.615 1.23l-.154.108-20 11.539H59.461l-20-11.539a1.54 1.54 0 0 1-.769-1.338v-23.37a.216.216 0 0 0 0-.107v-.123a.34.34 0 0 1 0-.123l.093-.123.092-.108.123-.108.17-.123 20-11.538c.229-.215.519-.355.83-.4h.2c.133.014.263.05.385.107l.184.077 20 11.539.154.107.123.108.108.108.092.123a.34.34 0 0 1 0 .123v.123a.214.214 0 0 0 0 .108V48.2l.293.23z" fill="#000"/></g><defs><clipPath id="a"><path fill="#fff" d="M0 0h120v120H0z"/></clipPath></defs></svg>
