<svg id="design-token" data-name="design-token" xmlns="http://www.w3.org/2000/svg" width="128" height="128" viewBox="0 0 128 128"><defs><style>.black{fill-rule:evenodd;}.gold{fill:#ffc700;}</style></defs><path id="outside" class="black" d="M64.5,25a.5.5,0,0,1,.5.5V41.09l1.36-15.53a.5.5,0,0,1,.54-.46l1,.09a.5.5,0,0,1,.45.54L67,41.27,69.7,25.91a.5.5,0,0,1,.58-.4l1,.17a.5.5,0,0,1,.41.58L69,41.61l4-15.06a.5.5,0,0,1,.61-.35l1,.26a.5.5,0,0,1,.35.61l-4,15.07,5.34-14.66a.5.5,0,0,1,.64-.3l.94.34a.5.5,0,0,1,.3.64L72.77,42.82l6.59-14.14a.51.51,0,0,1,.67-.24l.91.43a.5.5,0,0,1,.24.66L74.59,43.66l7.79-13.5a.51.51,0,0,1,.69-.18l.86.5a.5.5,0,0,1,.19.68l-7.8,13.5,8.94-12.77a.5.5,0,0,1,.7-.12l.82.57a.5.5,0,0,1,.12.7L78,45.81l10-12a.51.51,0,0,1,.71-.06l.76.65a.49.49,0,0,1,.06.7l-10,12,11-11a.48.48,0,0,1,.7,0l.71.71a.48.48,0,0,1,0,.7l-11,11,11.95-10a.49.49,0,0,1,.7.06l.65.76a.51.51,0,0,1-.06.71l-12,10L95,41.1a.5.5,0,0,1,.7.12l.57.82a.5.5,0,0,1-.12.7L83.34,51.68l13.5-7.8a.5.5,0,0,1,.68.19l.5.86a.51.51,0,0,1-.18.69l-13.5,7.79,14.13-6.59a.5.5,0,0,1,.66.24l.43.91a.51.51,0,0,1-.24.67L85.18,55.23l14.66-5.34a.5.5,0,0,1,.64.3l.34.94a.5.5,0,0,1-.3.64L85.86,57.11l15.07-4a.5.5,0,0,1,.61.35l.26,1a.5.5,0,0,1-.35.61L86.38,59l15.36-2.71a.5.5,0,0,1,.58.41l.17,1a.5.5,0,0,1-.4.58L86.73,61l15.54-1.36a.5.5,0,0,1,.54.45l.09,1a.5.5,0,0,1-.46.54L86.89,63H102.5a.5.5,0,0,1,.5.5v1a.5.5,0,0,1-.5.5H86.91l15.53,1.36a.48.48,0,0,1,.45.45v.09l-.09,1a.5.5,0,0,1-.54.45h0L86.73,67l15.36,2.71a.49.49,0,0,1,.41.49v.09l-.17,1a.5.5,0,0,1-.58.41h0L86.38,69l15.07,4a.51.51,0,0,1,.37.52l0,.09-.26,1a.5.5,0,0,1-.61.35h0l-15.07-4,14.66,5.34a.49.49,0,0,1,.32.55l0,.09-.34.94a.5.5,0,0,1-.64.3h0L85.18,72.77l14.14,6.59a.51.51,0,0,1,.27.58l0,.09-.43.91a.5.5,0,0,1-.66.24h0L84.34,74.59l13.5,7.79a.51.51,0,0,1,.22.61l0,.08-.5.86a.5.5,0,0,1-.68.19h0l-13.5-7.8,12.77,8.94a.51.51,0,0,1,.17.62l0,.08-.57.82a.5.5,0,0,1-.7.12h0L82.19,78l12,10a.51.51,0,0,1,.11.63l0,.08-.65.76a.49.49,0,0,1-.7.06h0l-11.95-10,11,11a.5.5,0,0,1,.06.63l-.06.07-.71.71a.48.48,0,0,1-.7,0h0l-11-11,10,11.95a.5.5,0,0,1,0,.64l-.07.06-.76.65a.51.51,0,0,1-.71-.06h0l-10-12L86.9,95a.51.51,0,0,1-.05.64l-.07.06-.82.57a.5.5,0,0,1-.7-.12h0L76.32,83.34l7.8,13.5a.5.5,0,0,1-.11.63l-.08,0-.86.5a.51.51,0,0,1-.69-.18h0l-7.79-13.5,6.59,14.13a.5.5,0,0,1-.17.62l-.07,0-.91.43a.51.51,0,0,1-.67-.24h0L72.77,85.18l5.34,14.66a.5.5,0,0,1-.22.6l-.08,0-.94.34a.5.5,0,0,1-.64-.3h0L70.89,85.86l4,15.07a.49.49,0,0,1-.27.58l-.08,0-1,.26a.5.5,0,0,1-.61-.35h0L69,86.38l2.71,15.36a.52.52,0,0,1-.32.56l-.09,0-1,.17a.5.5,0,0,1-.58-.4h0L67,86.73l1.36,15.54a.5.5,0,0,1-.36.52l-.09,0-1,.09a.5.5,0,0,1-.54-.46h0L65,86.9v15.6a.5.5,0,0,1-.5.5h-1a.5.5,0,0,1-.5-.5V86.9l-1.36,15.54a.5.5,0,0,1-.54.46l-1-.09a.5.5,0,0,1-.45-.54L61,86.73,58.3,102.09a.5.5,0,0,1-.58.4l-1-.17a.5.5,0,0,1-.41-.58L59,86.38l-4,15.07a.5.5,0,0,1-.61.35l-1-.26a.5.5,0,0,1-.35-.61l4-15.07-5.34,14.66a.5.5,0,0,1-.64.3l-.94-.34a.5.5,0,0,1-.3-.64l5.34-14.66L48.64,99.32a.51.51,0,0,1-.67.24l-.91-.43a.5.5,0,0,1-.24-.66l6.59-14.13-7.79,13.5a.51.51,0,0,1-.69.18l-.86-.5a.5.5,0,0,1-.19-.68l7.8-13.5L42.74,96.11a.5.5,0,0,1-.7.12l-.82-.57a.5.5,0,0,1-.12-.7l8.95-12.77-10,12a.51.51,0,0,1-.71.06l-.76-.65a.49.49,0,0,1-.06-.7l10-11.95-11,11a.48.48,0,0,1-.7,0l-.71-.71a.48.48,0,0,1,0-.7l11-11-12,10a.49.49,0,0,1-.7-.06l-.65-.76a.51.51,0,0,1,.06-.71l12-10L33,86.9a.5.5,0,0,1-.7-.12L31.77,86a.5.5,0,0,1,.12-.7l12.77-8.94-13.5,7.8a.5.5,0,0,1-.68-.19l-.5-.86a.51.51,0,0,1,.18-.69l13.5-7.79L29.53,81.18a.5.5,0,0,1-.66-.24L28.44,80a.51.51,0,0,1,.24-.67l14.14-6.59L28.16,78.11a.5.5,0,0,1-.64-.3l-.34-.94a.5.5,0,0,1,.3-.64l14.66-5.34-15.07,4a.5.5,0,0,1-.61-.35l-.26-1a.5.5,0,0,1,.35-.61l15.06-4L26.26,71.67a.5.5,0,0,1-.58-.41l-.17-1a.5.5,0,0,1,.4-.58L41.27,67,25.73,68.35a.5.5,0,0,1-.54-.45l-.09-1a.5.5,0,0,1,.46-.54L41.1,65H25.5a.5.5,0,0,1-.5-.5v-1a.5.5,0,0,1,.5-.5H41.1L25.56,61.64a.48.48,0,0,1-.45-.45V61.1l.09-1a.5.5,0,0,1,.54-.45h0L41.27,61,25.91,58.3a.49.49,0,0,1-.41-.49v-.09l.17-1a.5.5,0,0,1,.58-.41h0L41.62,59,26.55,55a.51.51,0,0,1-.37-.52l0-.09.26-1a.5.5,0,0,1,.61-.35h0l15.07,4L27.48,51.77a.49.49,0,0,1-.32-.55l0-.09.34-.94a.5.5,0,0,1,.64-.3h0l14.66,5.34L28.68,48.64a.51.51,0,0,1-.27-.58l0-.09.43-.91a.5.5,0,0,1,.66-.24h0l14.13,6.59-13.5-7.79a.51.51,0,0,1-.22-.61l0-.08.5-.86a.5.5,0,0,1,.68-.19h0l13.5,7.8L31.89,42.74a.51.51,0,0,1-.17-.62l.05-.08.57-.82a.5.5,0,0,1,.7-.12h0L45.81,50l-12-10a.51.51,0,0,1-.11-.63l0-.08.65-.76a.49.49,0,0,1,.7-.06h0l12,10-11-11a.5.5,0,0,1-.06-.63l.06-.07.71-.71a.48.48,0,0,1,.7,0h0l11,11-10-11.94a.5.5,0,0,1,0-.64l.07-.06.76-.65a.51.51,0,0,1,.71.06h0l10,12L41.1,33a.51.51,0,0,1,0-.64l.07-.06.82-.57a.5.5,0,0,1,.7.12h0l8.94,12.77-7.8-13.5a.5.5,0,0,1,.11-.63l.08-.05.86-.5a.51.51,0,0,1,.69.18h0l7.79,13.5L46.82,29.53a.5.5,0,0,1,.17-.62l.07,0,.91-.43a.51.51,0,0,1,.67.24h0l6.59,14.14L49.89,28.16a.5.5,0,0,1,.22-.6l.08,0,.94-.34a.5.5,0,0,1,.64.3h0l5.34,14.66-4-15.07a.49.49,0,0,1,.27-.58l.08,0,1-.26a.5.5,0,0,1,.61.35h0l4,15.06L56.33,26.26a.52.52,0,0,1,.32-.56l.09,0,1-.17a.5.5,0,0,1,.58.4h0L61,41.27,59.65,25.73a.5.5,0,0,1,.36-.52l.09,0,1-.09a.5.5,0,0,1,.54.46h0L63,41.1V25.5a.5.5,0,0,1,.5-.5Z"/><circle id="background" data-name="background" class="gold" cx="64" cy="64" r="37"/><path id="Combined-Shape" class="black" d="M64,26A38,38,0,1,1,26,64,38,38,0,0,1,64,26Zm0,2a36,36,0,1,0,36,36A36,36,0,0,0,64,28Zm1,62v8H63V90l1,0Zm-6.5-.56c.65.14,1.31.25,2,.34l-1.39,7.89c-.66-.1-1.32-.21-2-.35Zm11,0,1.39,7.88c-.65.14-1.31.25-2,.35l-1.39-7.89C68.19,89.67,68.85,89.56,69.5,89.42ZM54.17,88.08c.62.25,1.24.48,1.88.68l-2.74,7.53c-.63-.21-1.26-.44-1.88-.69Zm19.66,0,2.74,7.52c-.62.25-1.25.48-1.88.69L72,88.76C72.59,88.56,73.21,88.33,73.83,88.08ZM50.14,86c.56.36,1.14.69,1.73,1l-4,6.94c-.59-.32-1.17-.65-1.73-1Zm27.72,0,4,6.94c-.56.35-1.14.68-1.73,1l-4-6.94C76.72,86.69,77.3,86.36,77.86,86ZM46.53,83.26c.5.45,1,.88,1.54,1.29l-5.15,6.13q-.78-.63-1.53-1.29Zm34.94,0,5.14,6.13q-.75.66-1.53,1.29l-5.15-6.13C80.46,84.14,81,83.71,81.47,83.26ZM64,40A24,24,0,1,1,40,64,24,24,0,0,1,64,40ZM43.45,79.93c.41.53.84,1,1.29,1.54l-6.13,5.14q-.66-.75-1.29-1.53Zm41.1,0,6.13,5.15q-.63.78-1.29,1.53l-6.13-5.14C83.71,81,84.14,80.46,84.55,79.93ZM64,42A22,22,0,1,0,86,64,22,22,0,0,0,64,42ZM41,76.13c.31.59.64,1.17,1,1.73l-6.94,4c-.35-.56-.68-1.14-1-1.73Zm46,0,6.93,4c-.32.59-.65,1.17-1,1.73l-6.94-4C86.36,77.3,86.69,76.72,87,76.13ZM52,58.23V70.34a1,1,0,0,0,.5.87L63,77.27V69.92a6,6,0,0,1-4.63-8Zm24,0-6.37,3.68a6,6,0,0,1-4.63,8v7.35l10.5-6.06a1,1,0,0,0,.49-.75V58.23ZM39.24,72c.2.64.43,1.26.68,1.88L32.4,76.57c-.25-.62-.48-1.25-.69-1.88Zm49.52,0,7.53,2.74c-.21.63-.44,1.26-.69,1.88l-7.52-2.74C88.33,73.21,88.56,72.59,88.76,72ZM38.24,67.53c.09.66.2,1.32.34,2L30.7,70.89c-.14-.65-.25-1.31-.35-2Zm51.52,0,7.89,1.39c-.1.66-.21,1.32-.35,2L89.42,69.5C89.56,68.85,89.67,68.19,89.76,67.53ZM64,60a4,4,0,1,0,4,4A4,4,0,0,0,64,60Zm34,3c0,.33,0,.67,0,1s0,.67,0,1H90c0-.33,0-.66,0-1s0-.67,0-1ZM38,63c0,.33,0,.67,0,1s0,.67,0,1H30c0-.33,0-.67,0-1s0-.67,0-1ZM30.7,57.11l7.88,1.39c-.14.65-.25,1.31-.34,2l-7.89-1.39C30.45,58.42,30.56,57.76,30.7,57.11Zm66.6,0c.14.65.25,1.31.35,2l-7.89,1.39c-.09-.66-.2-1.32-.34-2ZM63.5,50.44,53,56.5l6.38,3.68A6,6,0,0,1,63.78,58H64a6,6,0,0,1,4.62,2.18L75,56.5l-3-1.71L64.5,50.44A1,1,0,0,0,63.5,50.44Zm32.1,1c.25.62.48,1.25.69,1.88l-7.53,2.74c-.2-.64-.43-1.26-.68-1.88Zm-63.2,0,7.52,2.74c-.25.62-.48,1.24-.68,1.88l-7.53-2.74C31.92,52.68,32.15,52.05,32.4,51.43Zm60.54-5.29c.35.56.68,1.14,1,1.73l-6.94,4c-.31-.59-.64-1.17-1-1.73Zm-57.88,0,6.94,4c-.36.56-.69,1.14-1,1.73l-6.94-4C34.38,47.28,34.71,46.7,35.06,46.14Zm54.33-4.75q.66.75,1.29,1.53l-6.13,5.15c-.41-.53-.84-1-1.29-1.54Zm-50.78,0,6.13,5.14c-.45.5-.88,1-1.29,1.54l-6.13-5.15Q38,42.14,38.61,41.39Zm4.31-4.07,5.15,6.13c-.53.41-1,.84-1.54,1.29l-5.14-6.13Q42.14,38,42.92,37.32Zm42.16,0q.78.63,1.53,1.29l-5.14,6.13c-.5-.45-1-.88-1.54-1.29Zm-5-3.26c.59.32,1.17.65,1.73,1l-4,6.94c-.56-.36-1.14-.69-1.73-1Zm-32.26,0,4,6.94c-.59.31-1.17.64-1.73,1l-4-6.94C46.7,34.71,47.28,34.38,47.87,34.06Zm5.44-2.35,2.74,7.53c-.64.2-1.26.43-1.88.68L51.43,32.4C52.05,32.15,52.68,31.92,53.31,31.71Zm21.38,0c.63.21,1.26.44,1.88.69l-2.74,7.52c-.62-.25-1.24-.48-1.88-.68ZM59.08,30.35l1.39,7.89c-.66.09-1.32.2-2,.34L57.11,30.7C57.76,30.56,58.42,30.45,59.08,30.35Zm9.84,0c.66.1,1.32.21,2,.35L69.5,38.58c-.65-.14-1.31-.25-2-.34ZM64,30h1v8l-1,0-1,0V30ZM78,56.48v15a1,1,0,0,1-.4.8l-.1.07-13,7.5h0l-.07,0h0l-.06,0h0l-.06,0h-.53l-.06,0h0l-.07,0h0l-13-7.5a1,1,0,0,1-.5-.87V56.35h0s0,0,0-.06v0a.14.14,0,0,0,0-.07l0,0h0l0-.08v0a.22.22,0,0,1,0-.08v0l.06-.08,0,0,.06-.07h0v0l.08-.07h0l.11-.08,13-7.5A1,1,0,0,1,64,48h.13a.78.78,0,0,1,.25.07l.12.05,13,7.5.1.07h0l.08.07h0l0,0h0l.07.07v0l.06.08v0a.22.22,0,0,1,0,.08v0l0,.08,0,0a.14.14,0,0,0,0,.07v0h0s0,0,0,.06v.13Z"/></svg>